<svg xmlns="http://www.w3.org/2000/svg" viewBox="0 0 1099.23 919.51"><defs><style>.cls-1{fill:none;stroke:#000;stroke-miterlimit:10;}</style></defs><title>heronFichier 1</title><g id="Calque_2" data-name="Calque 2"><g id="Calque_2-2" data-name="Calque 2"><path class="cls-1" d="M573.11,182.52s4.21-34.64,21.79-28.64c0,0,7.72.86,12.44-8.15,0,0,21.87-1.28,32.17,0s16.72-18,16.72-18,51.9-41.6,78.06-108.94c0,0-25.3,0-53.61,47.18,0,0,3,3.86-12,7.72,0,0,18-47.6,19.73-54.9s-1.72,7.3-1.72,7.3l-9.86-19.3s-27.45,20.15-32.17,49.75c0,0-10.29,5.14,3.86-49.75,0,0-7.29-18.45-29.59,12.86s-5.58,35.17-5.58,35.17l-11.15,3.43S594,48,586.32,48.38c0,0-1.71-7.29-11.15-3.43L564,31.22,561,38.94,544.29,7.63s-21-19.73-27.45,6.44c0,0-28.3-13.3-35.59,6.43,0,0-36.89-3.86-38.17,9.86,0,0-42,4.29-31.31,21.88,0,0-21.88-2.58-31.31,12.86,0,0,7.72,0,12,11.58,0,0-20.59-7.65-33.46,14.83,0,0,3.86-5.39,11.58,7l-19.3,4.29-5.57,9.86,2.14,4.72S326,116.57,323,125.15v4.29l-3.89,1.47s.75,3.94,6.94,5.82c0,0-22.69,7.87-26.45,14.63s11.26-.75,11.26-.75-4.69,2.25-4.5,5.25,2.43,1.5,2.43,1.5-16.27,7.64-18.66,12.92a.67.67,0,0,0,.62.94l11.11-.17s-10.28,3.54-14,13.22a.58.58,0,0,0,.6.77L305,183.61s-30.57,9-32.07,18.57c0,0-3.19,3.57,4.13,0s-20.63,9.19-16.13,12.94,11.81-1.31,11.81-1.31-11.81,7.5-10.87,10.32,15.75-4.51,15.75-4.51l-5.59,5.92a.49.49,0,0,0,.43.83l9.29-1.31s-4.13,3-3.38,6.19,13.32-1.31,13.32-1.31l-.38,2.45,4.5,1.11-10.69,6.57s-21.57-5.82-26.07,0l-6.13,4.2a1,1,0,0,0-.43.82v3.42L249.86,251a.51.51,0,0,0-.06.69l7,9.2s-27.19-4.69-33,10.87v2.63l-4.45,2.74a.89.89,0,0,0-.42.75v2.06a1.38,1.38,0,0,0,.31.87,7.09,7.09,0,0,0,6.63,2.58c4.5-.75,6.94,5.44,6.94,5.44S209,293.15,203.57,301.4L194,311.55a.53.53,0,0,0,.17.84l3.07,1.39s3.38.93-1.69,4.31,11.07,6,11.07,6-23.82,18.19-16.51,25.51,19.7,4.12,19.7,4.12-10.69,10.88-13.32,21.2c0,0-16.32,20.44,2.06,18.57,0,0,1.32.56-3.56,7.12a19.7,19.7,0,0,0-3.75,13.69s.75,4.88,8.63-.75c0,0-6,5.07-4.88,10.69l1.5,1.88s-59.64,54.95-72.21,62.27L98.35,505.64s-1.87-.94-5.06,2.44-28.7-1.69-28.7-1.69-7.88-3.75-12.75-2.06c0,0-9.82-5.5-15.19.37-3.66,4-3.94,5.82-3.94,5.82s.94,3.56,2.44-1.13c0,0,7.31-4.12,9-1.31,0,0-6.94,4.5,4.87,5.63s22.51,2.81,22.51,2.81L42.09,530s-6.77,2.82-9.67,5.07c0,0-11.53,3-13,7.69l.94,2.62H13.77v2.44a10.88,10.88,0,0,0,9.75,0l2.25-2.62,4.12-.19a17.39,17.39,0,0,1,7.88-5.63c5.25-1.87,10.32-3.56,10.32-3.56l1.12,2.06,2.44-2.25s5.25-2.81,7.69,0c0,0-11.07,11.44-14.63,12S28,556.28,28,557.78s-10.13,6.57-10.13,6.57a4.05,4.05,0,0,0-4.12,2.81S7.58,570,7.39,574.1s4.87,0,4.87,0-1.12,5.06-11.62,3.56c0,0-.72,2.14,1.12,3,3.66,1.73,9-1.12,9-1.12s3.76-1.88,5.07-4.13c0,0,4.69,0,10.69-7.88,0,0,2.81,1.5,7.5-3.75l8.07-4.12L68,546.53l30.57,13.69S77,563.6,77,567.35c0,0-3.19-1.69-7.88,1.12l-15,3.19-5.44-.37s-5.63-.94-9.75.75-2.07,4.31-2.07,4.31-.18,1.69-5.06-.94c0,0-2.63-.56-.94,1.69s7.88,3.81,7.88,3.81,3.56.13,4.31-1l.75-1.12s2.44,1.87,6.57,0,6.37-.94,6.37-.94l9.94-.75s5.07-1.5,6.57,1.12l-2.63,2.69s-5.25-.81-6.56,2L59.15,585s-5.25.37-6.94,2.43c0,0-5.06-.18-4.87,1.88,0,0-2.44-1.13-5.25,2.06,0,0-5.07-.75-6.57,2.25,0,0-7.31-1.12-9,4.13l3,1.88s-2.25,2.25-8.44-.94c0,0-1.69-.52-.56,1.71s5.62,3.35,5.62,3.35a10.48,10.48,0,0,0,2.11,0,5.62,5.62,0,0,0,3.52-1.36l4.88-1.5-12.19,5.44s-8.63.18-9.76,5.06,2.82,2.25,2.82,2.25,2.25,2.63-5.63,1.5c0,0,.19,2.07-5.44-1.69,0,0-1.87,2.82,1.88,3.94s10.69,1.69,12.94-1.5L28,615s10.5-8.44,16.13-8.81,7.31.37,7.31.37,4.13-6.18,26.07-11.81l7.69.19,24.2-14.63h3.94s3-4.13,7.31-4.13,4.5-6,4.5-6S205.82,484.82,231.7,461a16.38,16.38,0,0,0,9.19-4.31s3.19,3.75,9.57-8.63a78.57,78.57,0,0,1,20.06-11.62,97.4,97.4,0,0,0,18.2-9s-.57,8.63,2.25,8.63h9.75l3.56-2.63s-1.31,12,5.07,13.88c0,0-5.82,5.25-4.32,10.32a5.85,5.85,0,0,1-2.81,7.13s-.94,15.75,15,19.5,18,3.94,28.14,4.5l-15.57,8.44s-6,4.69-5.63,8.07a9.35,9.35,0,0,0,1.69,4.87,7.55,7.55,0,0,0,5.63.94s3.75,11.25,27.57,11.44l2.62.38s-15.19,5.44-20.06,18.56l5.25,6.57s-1.88,6.38-1.13,9.19,4.32,1.31,4.32,1.31,6.56,6.57,10.5,6.19,14.25-8.81,14.25-8.81l4.32,6.56s-19.32,9.19-15.2,19.13c0,0,.76,1.5,5.26.94a58.15,58.15,0,0,0,12.75,6.94s-8.25,5.06-4.69,12.38c0,0,1.88,3.37,5.25.75,0,0-3.56,5.25,19.7,8.81l2.25-.19s-11.82,6.57-10.32,19.13c0,0,2.63,4.69,6.75,1.32l-.18,2.81s-3.57,2.63-7.88,10.69c0,0,.19,3.75,1.31,4.88s4.31.75,4.31.75-.18,1.31-4.87,2.06,15.94,8.06,15.94,8.06h6.19s2.25-1.31-.94,1.88,0,6.94,0,6.94L420,672s1.5-2.06,3.57-1.69,4.5,1.13,4.12,3-3.56,4.88-1.5,8.44,8.07,1.69,8.07,1.69-.94,6.94,6.56,6.57a74.85,74.85,0,0,1,10.88,0l-12.19,2.8s-10.5,15.75,3.56,20.25l14.63,9.76s9.19,1.31,14.25-4.32l9,11.26,15.19,6a6.46,6.46,0,0,0,6.56-1.69s-1.5,8.44,3.75,15.57,16.32,8.81,16.32,8.81h9.57l7.69-6.94s-2.63,12.94,3.18,17.82,16.13,15,16.13,15,11.63,3.76,14.26,3.38,12.94-9.38,12.94-9.38.56,13.88,8.63,19.32,18.56,12.94,18.56,12.94a31.14,31.14,0,0,0,12.76.75,63.86,63.86,0,0,1,9.19-1.12l13.88,17.44L671,837.42s9.94,4.69,15.19,1.88,11.63-2.25,11.63-2.25,2.44,3,6.56,12,30,21.38,30,21.38,12.05,3.94,15.24.94,5.63-1.88,5.63-1.88,5.06,14.07,38.63,35.83h1.69a13.3,13.3,0,0,0,1.5-6.94,10.47,10.47,0,0,0-2.25-5.63l-1.5-9.94-3.56-7.88.37-10.31,1.69-4.13,28.88,44.83,7.51,7.31,6.19,6.38h2.06l1.12-4.88s-2.25-18.38-4.31-21.19-7.88-26.26-7.88-26.26L824,853.36l-.94-8.44,1.88-3,9,14.44,4.5,4.32,3.19,5.44,5.25,7.69,12,10.5L882.13,901l17.07,9.38h1.69s-11.26-16.32-16.13-18.76-23.26-36-23.26-36l-.37-5.62,3.75-3.57L884,866.12s49.51,14.44,61.14,16.5S925.08,874,925.08,874s-8.81-1.12-21.38-10.87S885.13,838,885.13,838,901.64,856.36,906,857.3s29.82,8.07,29.82,8.07l12.75,1.5a51.81,51.81,0,0,0-15.94-5.63c-9.37-1.69-30-17.07-30-17.07l-26.63-30L839.18,762.4v-1.69l-45-62.26-29.45-43.52,9.38.38s17.07,16.88,22.51,17.25c0,0,1.69.75.56-2.81s6.94,11.63,10.13,11.63-21-36-23.26-38.45S752.72,599,749.16,598.29c0,0-43.14-49.89-45.58-51.57s-15.38-28.51-15.38-28.51-45.8-91.39-60.34-131S602,316.66,602,316.66s20.36-.36,34.18,5.09,53.08,12.73,77.08,10.91,56-6.91,71.26-21.09c0,0,12.36-2.91,17.45-15.27l4.73-5.45,1.81-10.91s13.82-13.82-.72-32.72c0,0,3.27-15.64,8.72-18.18,0,0,12-12,28.36-13.82S880.18,213,880.18,213s47.26,0,63.63-5.45c0,0,32.35-2.91,42.17-4.73s26.54-6.18,26.54-6.18,68.72-3.64,75.63-9.09l9.45-1.45s-8-4-27.27-6.55S958,168.32,958,168.32l-5.34-4.91-6.52.6s-.6-2.65-8.33-1.93c0,0-2.41.6-14-5S887,147,887,147l-22.22-.24s-.6-.12-14.6,1c0,0,1.32.84-13.65,3.25l-15.93,5.32,24.26-4.71-22.69,6.28,25.35-4.35a44,44,0,0,1-10.74,4.71l-7.25.48s3.87,2.17,10.51,1,10.14,1.45,10.14,1.45-22.34,6.88-27,9c0,0,10.15-2.17,11-.85,0,0,2.66,1.57-20.28,8.33S788.34,185,788.34,185s-22.7,9.54-36.46,17.38-32,10.38-32,10.38L691.4,214l16.66,1.21s-9.3,1.09-14,7.6c0,0,9.42-6.76,19.2-7.48s24.38-2.42,24.38-2.42,26.68-6,33.08-11.22c0,0-14.36,7-16.42,18.35s-8.81,26.56-8.81,26.56-2.29,5.55,0,10.86,1.81,15.94,1.81,15.94-1.69,4-8.09,6.15-15.81,2.18-15.81,2.18l-24.51-2.54s-34.16-8.45-47.8-19.56c0,0-8.82-2.05-16.18-17.5s-20.28-32-20.28-32-14.13-13-22.7-14.37c0,0-15.33-8-20.16-7.6Z"/><path class="cls-1" d="M64.83,533s1.41,1.15,13-7.07l7.47-5-7.47,5s-.74-1.41-5.86.07a61.81,61.81,0,0,0-11,4.85"/><path class="cls-1" d="M28,557.78l-2.27,5.41s.95,1.19-4.27,1.48,2.31,3.09,2.31,3.09l2.73-.23"/><path class="cls-1" d="M73.22,578.22s5.47-3.27,9.84-3c0,0,3.7-6.17,10.31-5a21.73,21.73,0,0,0,11.43-1l1.79-2.36"/><path class="cls-1" d="M36.65,600.92s11.12-6.47,16.94-5.8c0,0,11.54-6.5,15.24-4.82,0,0,11.54-6,18.49-5.49a17.22,17.22,0,0,0,11.43-3l10.67-1.5"/><path class="cls-1" d="M59.34,535.65l1.58,1s-3.65,7.11,7,9.9"/><path class="cls-1" d="M80.86,540.57s18.32,10.3,25,11.85c0,0,2.3-.75,4.78,1.93s6.53-.62,6.53-.62l19.6-16.63L160,513.88l17.76-18.44,11.27-12.64,12.29-13,10.59-14.34s8.54-13.66,10.59-13l4.83-14.13s-9.44,7.33-18.25,7.25l-55.38,44.85-31.59,27.86-13.59,14.95-8.84,6.11-3.43-.53L80.86,540.57s-6.13-5.25-8.69-5.25-5-.13-5-.13l-6.27-4.38s-5.58-2.76-10.7,1a5.32,5.32,0,0,0-2.13,4"/><path class="cls-1" d="M209.11,435.62h-2.86s-.72.78,0-5.08c0,0,4.78-9.48,8-10.38l-9,4.33s-1.84,1.72-8.82,1.63"/><path class="cls-1" d="M222.53,442.5l.77,2.84,4.06-1.42,9.11-1.42s9.84-6.07,11.19-9c0,0-.1,6.63,2.59,8.29s6.74-.31,6.74-.31l13.53-5.07s16.32-12.66,17-15.25l1.35-1.55-.19,7.79"/><path class="cls-1" d="M600.75,266l-8.42,12.31s-.65,2.15,2.81,14,6.9,24.34,6.9,24.34"/><path class="cls-1" d="M571.76,188.16l-47.2-13.29-49.9,4.47-47.88,10.95s-105.73,20.39-135.06,39.65"/><polyline class="cls-1" points="1012.52 196.68 958.17 199.02 930.28 203.26"/><path class="cls-1" d="M1088.15,187.59l-55.51-1.1-58.77.55-27.18-.55s-24.35,6.36-36.7,7.59-8.65,0-8.65,0"/><line class="cls-1" x1="968.05" y1="178.37" x2="989.58" y2="177.31"/><path class="cls-1" d="M941.75,180.49s-9.35-7.76-13.94-7.41-8.12,1.59-9.71,4.76a8.18,8.18,0,0,0,0,6.53s2.65,3.89,5.65,2.12,5.83-6.48,5.83-6.48.59-4.52-1.25-5.47a10.12,10.12,0,0,0-3.89-1"/><path class="cls-1" d="M922.15,179.28s1.89-3.14,3.14-2.74a4.39,4.39,0,0,1,1.64.8,3.28,3.28,0,0,1,0,3.44c-1.14,1.59-2.14,2.84-3.54,2.14s-1.39-.35-1.54-1.5A4.4,4.4,0,0,1,922.15,179.28Z"/><path class="cls-1" d="M919,176.5s-3.63.49-5.34,2.62,1.3,6.25,1.3,6.25.35,1.81,4.89,1.58"/><path class="cls-1" d="M853.13,147.49l9.68.94s-6.43,1.25-9,2.93a75.08,75.08,0,0,1,10.24-.75c4.81.07,12.42-.49,12.42-.49s10.61-1.44,14.24.31A37.72,37.72,0,0,0,897.9,153l-24.54-1.69-11.23.75s10.48,1.62,12,2.37,8.24,2.94,8.24,2.94-1.81-.07-4.8,0a24.74,24.74,0,0,0-5,.56l14.36,2.56a17.11,17.11,0,0,0,9.49,1.87c5.68-.44,14.92-2.18,18.67-1.12s13.36,3.68,13.36,3.68,8.3,1,14,4.18,4,2.44,4,2.44-14.79-4.52-21.79-1.23-11.53,8.54-21,8.07c0,0-4.32-1.8-5.76,1.44,0,0-3.29,1.05-11.11-3.31a11.73,11.73,0,0,0-8.85,3.31c-3.91,3.86-13.37-1.44-13.37-1.44l-3.91-1.06s2.27,2.34.83,2.5-15.84-3.27-18.93-3.31c0,0,6.17,2.12,6.17,3.31s-14.6-1.44-14.6-1.44l-10.29,3.37h14s-4.53,2.47-17.49,1.38c0,0-16.86,11.86-23,10.63,0,0,13.63-9,18.92-13.74a88,88,0,0,0-21,9,265.69,265.69,0,0,1-24.52,12.66"/><path class="cls-1" d="M742.16,209.59l23-11.11s14.4-7.61,18.52-8.84,15.43-5.56,15.43-5.56l-20.78,10.55S752.36,209,742.16,209.59Z"/><path class="cls-1" d="M764.72,654.93s-7.51,1.12-22.54-17.23c0,0-15.55,19.62-40.27-23.44"/><path class="cls-1" d="M288.91,419.64s-3-8.27,18.56-24.6c0,0,.82-12,12.79-13.61l-1.09-4.9s-7.53,1.09-14.65-5.71c0,0-3.86-13.62,4.58-22.05,0,0-20.41,11.7-28-8.17H274.8s24.5-23.14,27.5-23.14c0,0-18.51,5.72-25.86-5.44,0,0,1.09-7.9,5.17-12.8s14.7-17.15,14.7-17.15-18.78,8.71-24,5.45c0,0,6.26-5.17,9-9.53s10.38-8.71,10.38-8.71-20.18,8.39-27.53,0c0,0,1.63-4.36,8.16-10.34a151.75,151.75,0,0,0,11.44-11.71s-3.54.55-6-1.36,7.35-5.8,7.35-5.8"/><path class="cls-1" d="M628.46,145.17v-5.59l-2.89-3.25v-4.7l-9.05-5.43s-2.53-4.7-14.1-6.87-8.32-2.9-8.32-2.9-6.51-13-15.56-13h-12.3"/><path class="cls-1" d="M667,683.92s13.2,20,25.91,9.78c0,0-1.47,28.83,26.87,18.57,0,0,10.76,29.32,29.33,20,0,0,9.28,25.42,30.79,25.9l6.84-6.35s-3.91,11.24,13.68,19.06S811.15,766,811.15,766l5.38,4.89,2-6.35"/><path class="cls-1" d="M372.82,191.24a277.92,277.92,0,0,1,43.89-23s-40.65,17.27-52.17,18.71c0,0,2.88-4.68,46.06-22.67L364.54,183s.36-1.78,14.39-8.09,22.67-10.62,22.67-10.62l-22.67,10.62-6.47-2a13.22,13.22,0,0,1,7.91-4.68c5.4-1.08,34.18-13,34.18-13l-34.18,13-1.8-4s2.52-2.51,12.06-5,23.2-7.92,23.2-7.92l-23.2,7.92s-8.1,1.8-4.14-1.8,50.73-15.83,50.73-15.83l-40.61,11.66s-5.8-.87-1.48-3.39,36.61-10.43,36.61-10.43l-28,7.42s-6.19-1.95-2.39-3.08S433,133.66,433,133.66l-21.33,6.86s-13.92-2.23,2-6.86,32.85-9.37,32.85-9.37l-25.46,7.24s-2.09-3,10.69-7.24c0,0-9.12-1.22,5.31-4.21s15.43-6,15.43-6,8-7,21.41-8c0,0,3.48-7.47,27.37-7s18.42-2,35.84,4.23S564,108.64,564,108.64"/><path class="cls-1" d="M414.11,370.29s-2.48,6.32,13.54,4.51c0,0-21.66,4.74-19.86,15.12S430.13,401,430.13,401s-9-1.58-16.92,10.16-5.52,14.21-5.52,14.21,3.26,7,13.87,7c0,0-4.73-1.25-2.82,8.4S430.13,452,430.13,452h4.29s-9,10.38,7.9,17.6l5.87,1.58s-4.51,2.71-4.51,7.68,7,9.93,7,9.93A31.22,31.22,0,0,0,459,491s-5.19,2.71-1.8,10.16,14.44,7,14.44,7-2.71-.9,0,5.2l1.35,2.7s-1.13,2.49,1.81,4.74a82.11,82.11,0,0,0,9.7,5.64s-2.93,0-1.13,7.68,7.9,7.67,7.9,7.67,7,1.81,11.51,0c0,0-6.77,3.38-1.8,10.83,0,0-2,7.67,10.38,8.13,0,0-1.36,2.93,2,6.31,0,0-1.58,5.2,5.86,7.9l4.07,1.13a7.44,7.44,0,0,0,.9,7.67s-.9,6.77,7.67,7.68h6.32s-1.8,4.74,0,6.54c0,0-9.7,7.22-4.51,23,0,0,14.22,9.25,36.56-2,0,0-4.07,16,5.64,19.86h5.64s-.45,8.35,5.87,9c0,0,11.06,2,15.57,0,0,0,2.71,5,14.67,3.15s15.57-5,15.57-5,5.41,10.61,25,3.84c0,0,11.51-5.77,19.86-15.3s12.63-12,12.63-12,7-10.61,7.68-21.21"/><path class="cls-1" d="M689.88,593.25s-12,14.22-28.43,11.29c0,0-8.58-2.94,0-33.18"/><path class="cls-1" d="M618.8,594.61s-7.45-12.87,13.54-42l2.25-9.93s-1.13,3.61-10.83,2"/><path class="cls-1" d="M618.49,580s-4.21,8-29,1.71c0,0-1.43-19.86,14.52-32.49a185.83,185.83,0,0,1,18-35.88"/><path class="cls-1" d="M599.63,553.3l-6.79-2.47V540.9s7.68-18.73,14.9-30.92"/><path class="cls-1" d="M592.84,545.18s-1.58,2-10.83,0c0,0-4.06-.22,0-16.69l12.41-22.12"/><path class="cls-1" d="M582,528.49s.45,4.28-11.06,3.15c0,0-8.8-4.06,1.13-21.66S582,491.25,582,491.25"/><path class="cls-1" d="M552.9,491.25s-29.79,5.6-7.51-24.53c0,0,1.26-1.57-23.54-2.82,0,0-5-1.57-1.57-8.48,0,0-9.1-1.88-11-5a40,40,0,0,0,6.9-9.65c3.14-6,14.9-14.21,14.9-14.21s-13-1.25-18.35,0-3.45,6.6-3.45,6.6"/></g></g></svg>