<svg xmlns="http://www.w3.org/2000/svg" viewBox="0 0 447.96 86.17"><defs><style>.cls-1{fill:#020203;}.cls-10,.cls-11,.cls-15,.cls-2,.cls-7,.cls-9{fill:#1d1d1b;}.cls-3{fill:#020304;}.cls-4,.cls-6{fill:none;}.cls-4,.cls-5,.cls-6,.cls-7{stroke:#1d1d1b;stroke-miterlimit:10;}.cls-4,.cls-5{stroke-width:0.25px;}.cls-5{fill:#f4eee7;}.cls-7{stroke-width:0.5px;}.cls-8{fill:#fff;}.cls-9{font-size:4.13px;font-family:CourierNewPSMT, Courier New;}.cls-10{font-size:4.5px;}.cls-10,.cls-11,.cls-15{font-family:Apple-Chancery, Apple Chancery;}.cls-11{font-size:3.92px;}.cls-12{letter-spacing:-0.01em;}.cls-13{letter-spacing:-0.01em;}.cls-14{letter-spacing:0em;}.cls-15{font-size:2.69px;}.cls-16{letter-spacing:-0.01em;}.cls-17{letter-spacing:-0.01em;}.cls-18{letter-spacing:0em;}</style></defs><g id="Calque_2" data-name="Calque 2"><g id="Calque_2-2" data-name="Calque 2"><path class="cls-1" d="M95.71,34.43H73.85V39.1h1.23a1.59,1.59,0,0,1,.8.21,2.78,2.78,0,0,1,.3.18,3.39,3.39,0,0,1,1.07,2.35v15a3.45,3.45,0,0,1-1.31,2.55,1.89,1.89,0,0,1-.93.31H73.85v4.76h19l6.31-19a.13.13,0,0,0,0-.12Zm-3.78,11L87.37,58.55h-3.1V40.28h6.24l1.42,4.85A.47.47,0,0,1,91.93,45.44Z"/><path class="cls-1" d="M226.31,34.43H204.45V39.1h1.23a1.59,1.59,0,0,1,.8.21,2.78,2.78,0,0,1,.3.18,3.39,3.39,0,0,1,1.07,2.35v15a3.45,3.45,0,0,1-1.31,2.55,1.89,1.89,0,0,1-.93.31h-1.16v4.76h19l6.31-19a.13.13,0,0,0,0-.12Zm-3.78,11L218,58.55h-3.1V40.28h6.24l1.42,4.85A.47.47,0,0,1,222.53,45.44Z"/></g><g id="Calque_3" data-name="Calque 3"><path class="cls-1" d="M124.28,59.71c-1.19-.11-1.49-2.19-1.51-2.32h0v-23H107.21s-7.4,23-8.18,24c-.19.24-1.33,1.27-1.64,1.27H96.32v4.67h12.44V59.71h-1.57c-.6,0-.85-1-.75-2.84a1.64,1.64,0,0,1,0-.22,5.06,5.06,0,0,1,.41-1.46l.33-.54,7.79,0V57.6a1.79,1.79,0,0,1-.32,1c-.29.41-.5.68-.64.85a.67.67,0,0,1-.51.24h-1.65v4.67h13.58l0-4.67ZM115,49.21h-5.83l3.11-9H115Z"/><path class="cls-1" d="M255.26,59.8c-1.18-.11-1.49-2.19-1.51-2.32h0V34.52H238.19s-7.4,23-8.18,24c-.19.24-1.33,1.27-1.64,1.27H227.3v4.67h12.44V59.8h-1.57c-.59,0-.85-.95-.75-2.84a1.64,1.64,0,0,1,0-.22,5.06,5.06,0,0,1,.41-1.46l.33-.54,7.79,0v2.94a1.79,1.79,0,0,1-.32,1c-.29.41-.5.68-.64.85a.65.65,0,0,1-.5.24h-1.66v4.67h13.58l0-4.67ZM246,49.3h-5.83l3.11-8.95H246Z"/><path class="cls-1" d="M304.34,59.8c-1.19-.11-1.49-2.19-1.51-2.32h0V34.52H287.27s-7.4,23-8.18,24c-.19.24-1.33,1.27-1.64,1.27h-1.07v4.67h12.44V59.8h-1.57c-.6,0-.85-.95-.75-2.84a1.64,1.64,0,0,1,0-.22,5.06,5.06,0,0,1,.41-1.46l.33-.54,7.79,0v2.94a1.79,1.79,0,0,1-.32,1c-.29.41-.5.68-.64.85a.67.67,0,0,1-.51.24h-1.65v4.67h13.58l0-4.67Zm-9.29-10.5h-5.83l3.11-8.95h2.72Z"/></g><g id="Calque_4" data-name="Calque 4"><path class="cls-1" d="M125.49,34.43v4.28A2.89,2.89,0,0,1,128,40.16a1.69,1.69,0,0,1,.24.88V64.38h10.11V59.71h-1.23c-1.16-.11-1.46-2.11-1.49-2.32v-23Z"/><path class="cls-1" d="M402.32,34.52V38.8a2.89,2.89,0,0,1,2.48,1.45,1.69,1.69,0,0,1,.24.88V64.47h10.11V59.8h-1.23c-1.16-.11-1.46-2.11-1.49-2.32v-23Z"/></g><g id="Calque_5" data-name="Calque 5"><path class="cls-1" d="M140.65,34.48h13.61v4.67s-3.12-.29-3.11,2.71,0,17.52,0,17.52h4.09a1.17,1.17,0,0,0,.32-.09c.87-.24.65-4.58.65-4.58h-.78V51.59h10.51v3.11h-.35a1.51,1.51,0,0,0-1,.33c-1,.84-2.5,3.19-3.75,9.38H140.65V59.77h1.4a.72.72,0,0,0,.29-.06A2.48,2.48,0,0,0,143.79,57l0-16s-.11-1.92-1.89-1.93h-1.21Z"/></g><g id="Calque_6" data-name="Calque 6"><path class="cls-1" d="M159.33,34.43v5h3.11l7.77,10.12v7.2a3.4,3.4,0,0,1-1.87,2.87.28.28,0,0,1-.15,0h-1.09v4.67h13.22V59.71h-1.07a3.19,3.19,0,0,1-.69-.21,2.31,2.31,0,0,1-1.35-2.14V49.6l8.95-10.11h2.33V34.43H176.44V39.1h1.11a.11.11,0,0,1,.09,0l.18.36a.87.87,0,0,1,0,.74l-.08.15a1.87,1.87,0,0,1-.33.45L175.28,43l-1.94-3.49s-.09-.41.77-.4h.39V34.43Z"/></g><g id="Calque_7" data-name="Calque 7"><path class="cls-2" d="M444.88,59.4A2.27,2.27,0,0,1,444,59c-2.68-2.05-4.23-7.4-4.23-7.4v-.39l3.53-9.6a2,2,0,0,0-.24-1.83L439,33.94H418.25v5.49h1.41a1,1,0,0,1,.88.53l.57.95a2,2,0,0,1,.27,1v15A2.08,2.08,0,0,1,419.83,59h-1.58v5.49h12.53V59.78c-3.2-.55-3.13-2-3.13-2V54.3h5.88l2,3.52V59a1.13,1.13,0,0,1-.78.79h-.39v4.7h12.14V59.4ZM433.13,48.82h-5.48v-9.4h5.47l1.59,1.91a1.7,1.7,0,0,1,.38,1.06v0a.86.86,0,0,1,0,.32Z"/></g><g id="Calque_8" data-name="Calque 8"><path class="cls-3" d="M369,34.33H349v4.31h1.1a.27.27,0,0,1,.13,0A2.49,2.49,0,0,1,351.78,41V57s0,.09,0,.11a5.36,5.36,0,0,1-1.31,2.54.75.75,0,0,1-.43.15h-1v4.3h20v-9h-3.13v2.41c0,.15-.24.91-1.83,1.48l-.19,0h-4.64V51.56h1.91c.25,0,.86.17.83,1.24v.32h2.74V45.69h-2.35v1c0,.17-.25.73-1.17,1h-2V39.81H364a2.89,2.89,0,0,1,1.92,2.29.25.25,0,0,1,0,.08V44.1l3.13,0Z"/></g><g id="Calque_9" data-name="Calque 9"><path class="cls-1" d="M256.18,34.61h24.67V44.4h-3.13V42.07s-.49-1.88-1.53-2l-4.74,0v18A1.62,1.62,0,0,0,273,59.28h1.17v5.1H262.44V60.07h1.14l.09,0a3.32,3.32,0,0,0,1.89-1.89.36.36,0,0,0,0-.1v-18h-5a.54.54,0,0,0-.21,0,2.26,2.26,0,0,0-1.06,1.91V44.4h-3.13Z"/></g><g id="Calque_10" data-name="Calque 10"><path class="cls-1" d="M375.43,40.88V57.72a3.24,3.24,0,0,1-2,2.35h-1.18v4.3h13.32v-4.3h-1.18a3.15,3.15,0,0,1-1.95-2.35V48.37l7.89,9.81a2.16,2.16,0,0,1-1.22,1.89h-1.57v4.3h13.31v-4.3h-1.17a4.21,4.21,0,0,1-1.93-1.9l0-17.29s.75-2.09,2.07-2h1.06V34.61H387.57v4.31h.34s2.55.17,2.79,2v9.4l-7.83-9.62v-.24a1.64,1.64,0,0,1,1.56-1.5h1.18V34.61H372.29v4.31h1.57A1.72,1.72,0,0,1,375.43,40.88Z"/></g><g id="Calque_11" data-name="Calque 11"><path class="cls-2" d="M317.84,34.52h10.49v3.86l-.49,0c-1.55,0-1.33,1.86-1.33,1.86L332,53.82l4.38-14.3s.05-1.11-1.27-1.11L335,34.52h10.75v4.31h-.92A4.16,4.16,0,0,0,342,41.31l-5.32,17.36c-.13.4.36.9.79.92h.78V63.9H325.67V59.59h.78a1,1,0,0,0,1-1.49l-7.2-17.81c-.12-.29-.43-1.36-1.2-1.46h-1.17Z"/></g><g id="Calque_12" data-name="Calque 12"><path class="cls-2" d="M305.55,32.92h9v7.83a4.43,4.43,0,0,1-.42,1.9,9.14,9.14,0,0,1-5.8,5l.73-.73a1.41,1.41,0,0,0,.29-.4,8.64,8.64,0,0,0,.5-2.08,33.49,33.49,0,0,0,0-4h0a3.39,3.39,0,0,0-.67-1.06A2.87,2.87,0,0,0,307.5,38h-1.95Z"/></g><g id="Calque_13" data-name="Calque 13"><path class="cls-2" d="M280.26,7.23h1.18v1a.73.73,0,0,0,.73.73h8.09l.71-5.2a2.07,2.07,0,0,1,.1-.43c.28-.91,1.51-4.17,4.28-3.17a1.46,1.46,0,0,1,.47,2.63c-.4.16-1,.31-1.42.44a3.11,3.11,0,0,0-1.29.94,2.54,2.54,0,0,0-.62,1.15A22.53,22.53,0,0,0,292,9h1.18V7.82h1.18v4.12H293.2V10.76h-1.41a65.69,65.69,0,0,0-.32,7.09s.47.28,1.54-1.41S294.84,15,294.84,15s1.33.21,1.31,3.62A11,11,0,0,1,294,25.26a.58.58,0,0,1-.45.2H292V24.28a5.15,5.15,0,0,0,2.9-4.34c.24-3.23-2-1.87-2-1.87l-.54.57A5,5,0,0,0,291.19,21a15.64,15.64,0,0,0-.34,3.85h-1.18s0-10.28.59-14.11H288.5s-.26,17-4.7,23.82a22.63,22.63,0,0,1-9.31,7.93,10.24,10.24,0,0,1-5.14,1c-2.49-.21-5.84-1.06-6.13-4.11-.47-4.91,2.56-6.14,2.56-6.14A35.7,35.7,0,0,1,275.66,30s2.63-.62,2.25-2c-.47-1.69,2-1.26,2-1.26s1.81.88.4,2.85c-1,1.4-4.31,1.8-6.14,1.92a12.25,12.25,0,0,0-3.22.63,13.83,13.83,0,0,0-4.15,2.27c-1.61,1.4-1.63,2.16-1.63,2.16a3.22,3.22,0,0,0,1.25,3.68c2.06,1.36,3.23,1.22,3.23,1.22s4.74.53,10-4.77C283,33.21,285,27.19,285,27.19s1.73-8,1.73-11.37,0-5.06,0-5.06h-4.54a.76.76,0,0,0-.75.75v1h-1.18Z"/><path class="cls-2" d="M301.85,14.89c-1.36-.38-3.14,2.46-3.73,3.48a2.79,2.79,0,0,0-.29.72c-1,3.81.09,5.53.09,5.53s.21.67,1.78,0c2.53-1.09,2.4-2.38,2.4-2.38s-.16-.84-1-.29a2.84,2.84,0,0,1-1.67.63.44.44,0,0,1-.42-.34,2.94,2.94,0,0,1,.17-1.55,4.45,4.45,0,0,1,2.33-2.14,7.9,7.9,0,0,0,.68-.5C302.92,17.58,304.22,15.54,301.85,14.89Zm-.78,3.19c-.17.14-.27.28-.5.32h-.9v-.78a1.41,1.41,0,0,1,1.45-1.05C302.1,16.54,301.65,17.6,301.07,18.08Z"/></g><g id="Calque_15" data-name="Calque 15"><path class="cls-2" d="M20.72,60.07s1.2-.8,3.34,1.07.88-.94.88-.94l3.53,3.11s-1.07,1,1.66,7.65c0,0,1.89-.6,1.62-5.07l.71.51s.07,5.29-1.79,5.49c0,0-.47.13.6,2.54l.33,1.8-1.87.6-.4-1.14a3.9,3.9,0,0,0-2,1.14c-1,1-1.54.93-1.54.93h-3s-.47.4-1.07-1c-.37-.86.74-1,1.64-1A2.29,2.29,0,0,0,25.15,75l1.78-2Z"/><path class="cls-2" d="M53.36,60.57s-1.2-.8-3.34,1.07-.88-1-.88-1L45.61,63.8s1.08,1-1.66,7.65c0,0-1.88-.6-1.62-5.07l-.71.51s-.07,5.29,1.8,5.49c0,0,.46.14-.61,2.54l-.33,1.8,1.87.6.4-1.13a3.83,3.83,0,0,1,2,1.13c1,1,1.54.94,1.54.94h3s.47.4,1.07-1c.37-.86-.74-1-1.64-1a2.29,2.29,0,0,1-1.79-.76l-1.78-2Z"/><path class="cls-4" d="M.12,26.59H.86a.56.56,0,0,0,.46-.24l.87-1.19a.33.33,0,0,1,.51,0l6.46,6.75,3.59,4.2L17.3,41.4a.33.33,0,0,1,0,.42l-2,2.76a.41.41,0,0,1-.64,0,41.87,41.87,0,0,1-5-7.07,13.21,13.21,0,0,0-5-5.24,2.1,2.1,0,0,1-.55-.43l-3.79-4a.87.87,0,0,1-.24-.59Z"/><path class="cls-4" d="M16.66,42.72c-1.68-.14-8.55-8.87-8.55-8.87l-1-1L.67,26.59l1.67-.16,3.82,4"/><path class="cls-5" d="M7.4,34.08c-1.69.35-.37-.95-.37-.95L8.89,32a.85.85,0,0,1,.58-.11c3.41.56,9.83,4.34,9.83,4.34h2l1.47,5s.44-.62-1.47.23-4.8-2.42-4.8-2.42-3.87-3.69-4.05-3.14c-1.21.2-2.85-2.28-3.45-2.34Z"/><path class="cls-6" d="M21.12,35.84s5.07,10.55-.4,20.3c0,0,10.61,10.88,16.42,12.88,0,0,12.42-6.88,16.42-11.95,0,0-5.21-12.41.47-21.23,0,0-5.47-2.8-7.41-7.94,0,0-7.68,4.87-18.09,0A19.7,19.7,0,0,1,21.12,35.84Z"/><path class="cls-4" d="M75.16,26.59h-.73a.58.58,0,0,1-.47-.24l-.86-1.19a.33.33,0,0,0-.51,0l-6.47,6.75-3.59,4.2L58,41.4a.35.35,0,0,0,0,.42l2,2.76a.41.41,0,0,0,.64,0,43.07,43.07,0,0,0,5-7.07,13.21,13.21,0,0,1,5-5.24,2.1,2.1,0,0,0,.55-.43l3.79-4a.86.86,0,0,0,.23-.59Z"/><path class="cls-4" d="M58.63,42.72c1.68-.14,8.55-8.87,8.55-8.87l1-1,6.45-6.26L73,26.43l-3.82,4"/><path class="cls-5" d="M67.89,34.08c1.69.35.36-.95.36-.95L66.4,32a.87.87,0,0,0-.59-.11c-3.4.56-9.82,4.34-9.82,4.34H54l-1.47,5s-.45-.62,1.47.23,4.8-2.42,4.8-2.42,3.87-3.69,4-3.14c1.21.2,2.85-2.28,3.45-2.34Z"/><path class="cls-1" d="M34,33.38H26.46V35h.42a.53.53,0,0,1,.28.07l.1.07a1.15,1.15,0,0,1,.38.81v5.2a1.17,1.17,0,0,1-.46.88.67.67,0,0,1-.32.11h-.4v1.65H33l2.18-6.58a0,0,0,0,0,0,0ZM32.72,37.2l-1.58,4.54H30.07V35.41h2.16l.49,1.68A.2.2,0,0,1,32.72,37.2Z"/><path class="cls-1" d="M48.17,49.26H40.6v1.62H41a.53.53,0,0,1,.28.07l.1.06a1.17,1.17,0,0,1,.38.82V57a1.17,1.17,0,0,1-.46.88A.67.67,0,0,1,41,58h-.4v1.65h6.57l2.18-6.58s0,0,0,0Zm-1.31,3.82-1.58,4.54H44.21V51.29h2.16L46.86,53A.2.2,0,0,1,46.86,53.08Z"/><path class="cls-2" d="M35.19,25.36A32,32,0,0,0,34,19.76a2.28,2.28,0,0,0-2.22-1.24V16.07s-1.54-4.38-5-5.36-5-5.45-5-5.45c-2.09,3.5,2.74,6.63,2.74,6.63C22.22,11.27,20.13,8,20.13,8c-.78,3.4,4.8,6.05,4.8,6.05-2.81.19-5.49-3.37-5.49-3.37-.26,5.52,6.18,5.95,6.18,5.95-2.42.78-6.18-2.06-6.18-2.06.33,4.38,7,3.76,7,3.76-1.86,1-5.71-.17-5.71-.17A5.78,5.78,0,0,0,27,20.51a2.71,2.71,0,0,1-1.86.5,23.22,23.22,0,0,1-3.72-.27c1.5,2.06,4.9,1.83,4.9,1.83a8.25,8.25,0,0,1-3.34.26c.46,1.47,4.84,1.54,4.84,1.54a2.19,2.19,0,0,1-1.57.85c.95,1,3.53.45,3.53.45-.75,1.08-.56,1-.52,1.28s1.6,0,1.6,0,.09-.43,2.64-.52S35.19,25.36,35.19,25.36Zm-4.74-7.13s-2.25-2.65-2.51-4.54c0,0,1.78,3.79,2.74,4.47a5,5,0,0,0,2.74,4.48S30.58,22.25,30.45,18.23Z"/><path class="cls-7" d="M35.17,12c-.65-.07.25.51.8.83A.86.86,0,0,0,35.17,12Z"/><path class="cls-7" d="M40.89,25l.26-5.41.19-.34a2.1,2.1,0,0,1-1.19-2.82A2.92,2.92,0,0,0,39.3,13s.82-1.47.3-1.5-.82,1.56-.82,1.56l-2.45,0L36,12.85A.86.86,0,0,1,36,13l-.36.36a2.78,2.78,0,0,0-.42,4.11c-1.31.56-.67,4.18-.67,4.18l-.2.35s.12,3.3,1.42,3.37L34.6,26.81s-2.61-.4-3.63.64.92,1.37.92,1.37.41,1.08,2.28-.78c0,0,2.59,0,3.7-1.83a3,3,0,0,0,.78,1.73c.72.75-.46,2.19-.46,2.19l1.73-.26a2.52,2.52,0,0,1,1.23-2.65C42.77,26.24,40.89,25,40.89,25Zm-4.92-9a.74.74,0,1,1,.73-.74A.74.74,0,0,1,36,15.92Zm2.62,0a.74.74,0,1,1,.73-.74A.74.74,0,0,1,38.59,15.92Z"/><path class="cls-2" d="M41.45,25.79c2.54.09,2.64.51,2.64.51s1.57.3,1.6,0,.23-.19-.52-1.27c0,0,2.58.52,3.53-.46a2.15,2.15,0,0,1-1.57-.85s4.38-.06,4.83-1.53a8.21,8.21,0,0,1-3.33-.26s3.4.23,4.9-1.83a24.58,24.58,0,0,1-3.72.27,2.71,2.71,0,0,1-1.86-.5,5.79,5.79,0,0,0,6.3-2.35s-3.85,1.14-5.71.16c0,0,6.66.62,7-3.76,0,0-3.76,2.85-6.18,2.06,0,0,6.44-.42,6.18-5.94,0,0-2.68,3.56-5.49,3.36,0,0,5.58-2.64,4.8-6,0,0-2.09,3.26-4.31,3.89,0,0,4.83-3.14,2.74-6.64,0,0-1.57,4.48-5,5.46s-5,5.36-5,5.36v2.45A2.26,2.26,0,0,0,41,19.12a31.76,31.76,0,0,0-1.24,5.59S38.9,25.7,41.45,25.79Zm.1-3.8a5,5,0,0,0,2.74-4.47C45.25,16.83,47,13,47,13c-.26,1.9-2.51,4.54-2.51,4.54C44.39,21.6,41.55,22,41.55,22Z"/><path class="cls-2" d="M34.69,30.22Z"/><path class="cls-2" d="M34.74,30.22h0Z"/><path class="cls-2" d="M46.32,28l0,0Z"/><path class="cls-2" d="M45.77,26.82l-.12-.24Z"/><path class="cls-2" d="M46.3,27.93l-.22-.47Z"/><path class="cls-2" d="M35.29,30.21h0Z"/><path class="cls-2" d="M36.05,30.21h0Z"/><path class="cls-2" d="M36.84,30.2h0Z"/><path class="cls-2" d="M37,30.2h0Z"/><path class="cls-2" d="M35.34,30.21h0Z"/><path class="cls-2" d="M36.39,30.2h0Z"/><path class="cls-2" d="M37.07,30.2h0Z"/><path class="cls-2" d="M35.7,30.21h0Z"/><path class="cls-2" d="M36.22,30.2h0Z"/><path class="cls-2" d="M45.65,26.58,45.4,26Z"/><path class="cls-2" d="M53.73,35.91l.07-.12Z"/><path class="cls-2" d="M45.4,26l0-.07Z"/><path class="cls-2" d="M45.24,25.7Z"/><path class="cls-2" d="M45.27,25.77l0-.07Z"/><path class="cls-2" d="M54.06,35.35l.12-.19Z"/><path class="cls-2" d="M46.32,28a20.49,20.49,0,0,1-9.25,2.23l.3,16.39H51.15s-1-4.74,2.58-10.68A16.92,16.92,0,0,1,46.32,28ZM48.83,40.5l-1.44,0L47.62,42l-1.89-1-1.3,2-.6-1.7-1.26.65.33-1.8-2.18-.58,1.58-1.21L41.07,37.1l1.86-.25L42.83,35l1.46,1,.9-1.77,1,2,1.69-.65-.4,1.37,1.8.28L47.5,38.85Z"/><path class="cls-2" d="M45.37,26l-.1-.2Z"/><path class="cls-2" d="M20.71,56.2l-.08-.07Z"/><path class="cls-2" d="M23.24,45.65h0Z"/><path class="cls-2" d="M23.31,46.59v0Z"/><path class="cls-2" d="M23.22,45.39c0-.62,0-.41,0,0Z"/><path class="cls-2" d="M23.31,46.59c.28,3.61-2.6,9.61-2.6,9.61A75,75,0,0,0,37.13,69.09l.24-22.5Zm10.61,9.78-1.44,0,.22,1.45-1.88-1-1.3,2-.6-1.69-1.26.64L28,56l-2.18-.58,1.58-1.22L26.16,53,28,52.73l-.1-1.9,1.46,1,.9-1.77,1,2,1.69-.65-.4,1.37,1.8.29-1.74,1.65Z"/><path class="cls-2" d="M23.24,45.64l0-.25Z"/><path class="cls-2" d="M23.26,45.93l0-.28Z"/><path class="cls-2" d="M23.29,46.33v0Z"/><path class="cls-2" d="M23.31,46.53l0-.2Z"/><path class="cls-2" d="M23.28,46.13l0-.2Z"/></g><g id="Calque_16" data-name="Calque 16"><path d="M386.59,22.43V23c-1.58,0-3.17,0-4.75,0-.19,0-.39,0-.59.06h-.11c-.23,0-.47-.06-.71-.06l-10.89,0c-.91,0-1.82.05-2.73.08h-1.34a.68.68,0,0,0-.23-.07l-5.65,0-18.2,0c-.19,0-.39,0-.59.06h-.11c-.51,0-1-.06-1.54-.06q-5.11,0-10.23,0c-.86,0-1.71.06-2.56.09H325c-.76,0-1.52-.09-2.28-.09-2.6,0-5.2,0-7.8,0-1.42,0-2.84,0-4.25.07h-.12A4.52,4.52,0,0,0,310,23l-4.8,0v-.47a5,5,0,0,1,.65-.08q2.28,0,4.56,0c5.27,0,10.55,0,15.83.06,2.38,0,4.75,0,7.13-.05H350.3l13.86,0,5.95,0c2.48,0,4.95-.05,7.43-.06Z"/><path class="cls-8" d="M386.59,22.43h-9c-2.48,0-5,0-7.43.06l-5.95,0-13.86,0H333.41c-2.38,0-4.75.05-7.13.05-5.28,0-10.56,0-15.83-.06q-2.28,0-4.56,0a5,5,0,0,0-.65.08c0-.15-.07-.36.28-.28a1.62,1.62,0,0,0,.22,0h80.35C386.23,22.25,386.6,22,386.59,22.43Z"/><path class="cls-8" d="M340.8,23.08c.2,0,.4-.06.59-.06l18.2,0,5.65,0a.68.68,0,0,1,.23.07Z"/><path class="cls-8" d="M366.81,23.08c.91,0,1.82-.08,2.73-.08l10.89,0c.24,0,.48,0,.71.06Z"/><path class="cls-8" d="M310.69,23.08c1.41,0,2.83-.06,4.25-.07,2.6,0,5.2,0,7.8,0,.76,0,1.52.06,2.28.09Z"/><path class="cls-8" d="M326.36,23.08c.85,0,1.7-.09,2.56-.09q5.11,0,10.23,0c.51,0,1,0,1.54.06Z"/><path class="cls-8" d="M305.24,23l4.8,0a4.52,4.52,0,0,1,.53.06h-5A1.32,1.32,0,0,1,305.24,23Z"/><path class="cls-8" d="M381.25,23.08c.2,0,.4-.06.59-.06,1.58,0,3.17,0,4.75,0a1.3,1.3,0,0,1-.34.08Z"/><path d="M386.28,81.3v.59c-.35,0-.7,0-1,0H365.55l-19.06,0-15.61,0-4.94-.05c-1.59,0-3.18,0-4.77,0-1.09,0-2.18,0-3.27,0-2.7,0-5.4.06-8.1.07-2.48,0-5,0-7.45,0l-3.83,0c-3.37,0-6.74-.06-10.11-.07-2.83,0-5.66,0-8.49,0H249.3l-20,0H192.16l-14.39,0h-6.5l-2.88,0c-1.94,0-3.89,0-5.83,0-2.83,0-5.65,0-8.48.06-2.45,0-4.91,0-7.36,0l-5.67,0c-2.73,0-5.47,0-8.21,0-2.33,0-4.66.05-7,.06H110.34c-3.15,0-6.3,0-9.45,0H74.94c-.31,0-.62,0-1-.07l0-.45c.36,0,.67-.08,1-.08h39.46l11.56,0c2.58,0,5.15,0,7.72,0l5,0c1.11,0,2.22,0,3.33,0,2.35,0,4.7,0,7.05,0h5.38c1.88,0,3.77,0,5.66,0,2.46,0,4.92,0,7.37,0,1.8,0,3.59,0,5.38-.06,2.32,0,4.63,0,6.95,0,4.5,0,9,0,13.5,0h87.88c2.41,0,4.81,0,7.22.06,1.5,0,3,0,4.49,0,1.78,0,3.55,0,5.32,0,1.57,0,3.14.05,4.71,0,1.74,0,3.48,0,5.21,0,2.3,0,4.59,0,6.89,0,2.58,0,5.17,0,7.75,0,1.85,0,3.7,0,5.55,0,2.63,0,5.26,0,7.89,0l30.9,0c5.71,0,11.42,0,17.12,0Z"/><path class="cls-8" d="M386.28,81.3h-2c-5.7,0-11.41,0-17.12,0l-30.9,0c-2.63,0-5.26,0-7.89,0-1.85,0-3.7,0-5.55,0-2.58,0-5.17,0-7.75,0-2.3,0-4.59,0-6.89,0-1.73,0-3.47,0-5.21,0-1.57,0-3.14,0-4.71,0-1.77,0-3.54,0-5.32,0-1.5,0-3,0-4.49,0-2.41,0-4.81,0-7.22-.06H193.35c-4.5,0-9,0-13.5,0-2.32,0-4.63,0-6.95,0-1.79,0-3.58.06-5.38.06-2.45,0-4.91,0-7.37,0-1.89,0-3.78,0-5.66,0h-5.38c-2.35,0-4.7,0-7.05,0-1.11,0-2.22,0-3.33,0l-5,0c-2.57,0-5.14,0-7.72,0l-11.56,0H75c-.31,0-.62.05-1,.08l0,.45c.34,0,.65.07,1,.07h26c3.15,0,6.3,0,9.45,0h15.51c2.33,0,4.66,0,7-.06,2.74,0,5.48,0,8.21,0l5.67,0c2.45,0,4.91,0,7.36,0,2.83,0,5.65-.06,8.48-.06,1.94,0,3.89,0,5.83,0l2.88,0h6.5l14.39,0h37.13l20,0h30.62c2.83,0,5.66,0,8.49,0,3.37,0,6.74,0,10.11.07l3.83,0c2.48,0,5,0,7.45,0,2.7,0,5.4,0,8.1-.07,1.09,0,2.18,0,3.27,0,1.59,0,3.18,0,4.77,0l4.94.05,15.61,0,19.06,0h19.68c.35,0,.7,0,1,0,0,.06-.06.17-.12.19a2.38,2.38,0,0,1-.38,0H73.85V81.2H385.78A3.1,3.1,0,0,1,386.28,81.3Z"/><path d="M386.28,82.85v1.07c-3.93,0-7.86,0-11.78,0H334.78c-4.6,0-9.19,0-13.78,0-6.32,0-12.65.06-19,.06s-12.85,0-19.28,0c-7.17,0-14.35,0-21.53,0q-16.9,0-33.83,0c-11.95,0-23.9,0-35.86,0-6.5,0-13-.09-19.49-.1-3.51,0-7,.1-10.54.1-4.65,0-9.3-.06-14-.06-5.37,0-10.74,0-16.11,0l-25.49,0H78.2c-1.18,0-2.37,0-3.55,0-.2,0-.57-.32-.55-.45a1,1,0,0,1,.52-.6,2.08,2.08,0,0,1,.8,0l18.79,0,44.06,0c6.44,0,12.89.06,19.34.06,6.08,0,12.15,0,18.23,0q18.19,0,36.38-.06,18.84,0,37.69,0,22,0,44,0c5.23,0,10.45.09,15.68.11,4.49,0,9,0,13.47,0,4.12,0,8.24-.06,12.36-.07l40.24-.06Z"/><path class="cls-8" d="M386.28,82.85H375.62l-40.24.06c-4.12,0-8.24,0-12.36.07-4.49,0-9,0-13.47,0-5.23,0-10.45-.1-15.68-.11q-22,0-44,0-18.84,0-37.69,0-18.19,0-36.38.06c-6.08,0-12.15,0-18.23,0-6.45,0-12.9,0-19.34-.06l-44.06,0-18.79,0a2.08,2.08,0,0,0-.8,0,1,1,0,0,0-.52.6c0,.13.35.44.55.45,1.18,0,2.37,0,3.55,0h27.74l25.49,0c5.37,0,10.74,0,16.11,0,4.65,0,9.3.07,14,.06,3.51,0,7-.1,10.54-.1,6.5,0,13,.1,19.49.1,12,0,23.91,0,35.86,0q16.92,0,33.83,0c7.18,0,14.36,0,21.53,0,6.43,0,12.86,0,19.28,0s12.66,0,19-.06c4.59,0,9.18,0,13.78,0H374.5c3.92,0,7.85,0,11.78,0-.07.12-.12.32-.21.35a3.35,3.35,0,0,1-.71,0H73.85V82.67H385.36A5,5,0,0,1,386.28,82.85Z"/><path d="M280.85,21.86v.66l-3.69,0-9.82.08H267c-2.59,0-5.17-.06-7.76-.06q-12.36,0-24.72,0c-1.38,0-2.77.05-4.15.08h-3.2c-.48,0-1-.09-1.45-.09-4.19,0-8.38,0-12.57,0q-19.87,0-39.76,0c-3.05,0-6.11.06-9.16.08h-.36c-.76,0-1.52-.07-2.27-.07H130.3c-1,0-2.05.05-3.08.07H124c-.49,0-1-.08-1.47-.08q-12.55,0-25.1,0c-3.35,0-6.71.05-10.06.08H87c-.57,0-1.13-.07-1.7-.07l-11.82,0V22c.81,0,1.62-.09,2.43-.09l60.38,0c10.71,0,21.42-.06,32.13-.05,17.8,0,35.6.07,53.4.08,8.24,0,16.47,0,24.71-.05Z"/><path class="cls-8" d="M280.85,21.86l-34.28,0c-8.24,0-16.47.06-24.71.05-17.8,0-35.6-.07-53.4-.08-10.71,0-21.42.05-32.13.05L76,21.88c-.81,0-1.62.06-2.43.09.12-.07.2-.19.37-.21.38,0,.82,0,1.23,0H279.25C279.78,21.76,280.32,21.82,280.85,21.86Z"/><path class="cls-8" d="M164.21,22.63c3,0,6.11-.07,9.16-.08q19.89,0,39.76,0c4.19,0,8.38,0,12.57,0,.48,0,1,.06,1.45.09Z"/><path class="cls-8" d="M230.35,22.63c1.38,0,2.77-.08,4.15-.08q12.36,0,24.72,0c2.59,0,5.17,0,7.76.06Z"/><path class="cls-8" d="M87.39,22.63c3.35,0,6.71-.08,10.06-.08q12.55,0,25.1,0c.49,0,1,.05,1.47.08Z"/><path class="cls-8" d="M127.22,22.63c1,0,2.05-.07,3.08-.07h31.28c.75,0,1.51.05,2.27.07Z"/><path class="cls-8" d="M73.52,22.52l11.82,0c.57,0,1.13.05,1.7.07-4.21,0-8.42,0-12.63,0A6.76,6.76,0,0,1,73.52,22.52Z"/><path class="cls-8" d="M267.34,22.63l9.82-.08,3.69,0a6.76,6.76,0,0,1-.89.11C275.75,22.64,271.54,22.63,267.34,22.63Z"/><path d="M280.85,19.52v1.21l-3.69.05-9.82.15H267c-2.59,0-5.17-.11-7.76-.12q-12.36,0-24.72,0c-1.38,0-2.77.1-4.15.16h-3.2a12,12,0,0,0-1.45-.18c-4.19,0-8.38,0-12.57,0q-19.87,0-39.76,0c-3.05,0-6.11.1-9.16.15h-.36c-.76-.05-1.52-.13-2.27-.13q-15.65,0-31.28,0c-1,0-2.05.09-3.08.14H124a12.23,12.23,0,0,0-1.47-.16q-12.55,0-25.1,0c-3.35,0-6.71.1-10.06.16H87c-.57-.05-1.13-.13-1.7-.13l-11.82-.07v-1c.81-.06,1.62-.17,2.43-.17q30.19,0,60.38.07c10.71,0,21.42-.1,32.13-.09,17.8,0,35.6.12,53.4.15,8.24,0,16.47-.08,24.71-.1Q263.7,19.54,280.85,19.52Z"/><path class="cls-8" d="M280.85,19.52q-17.14,0-34.28.06c-8.24,0-16.47.11-24.71.1-17.8,0-35.6-.12-53.4-.15-10.71,0-21.42.09-32.13.09q-30.2,0-60.38-.07c-.81,0-1.62.11-2.43.17.12-.14.2-.36.37-.39a10,10,0,0,1,1.23,0H279.25A12.49,12.49,0,0,1,280.85,19.52Z"/><path class="cls-8" d="M164.21,20.93c3-.05,6.11-.14,9.16-.15q19.89,0,39.76,0c4.19,0,8.38,0,12.57,0a12,12,0,0,1,1.45.18Z"/><path class="cls-8" d="M230.35,20.93c1.38-.06,2.77-.16,4.15-.16q12.36,0,24.72,0c2.59,0,5.17.08,7.76.12Z"/><path class="cls-8" d="M87.39,20.93c3.35-.06,6.71-.15,10.06-.16q12.55,0,25.1,0a12.23,12.23,0,0,1,1.47.16Z"/><path class="cls-8" d="M127.22,20.93c1-.05,2.05-.14,3.08-.14q15.63,0,31.28,0c.75,0,1.51.08,2.27.13Z"/><path class="cls-8" d="M73.52,20.73l11.82.07c.57,0,1.13.08,1.7.13H74.41A4.72,4.72,0,0,1,73.52,20.73Z"/><path class="cls-8" d="M267.34,20.93l9.82-.15,3.69-.05a4.72,4.72,0,0,1-.89.19Z"/><path d="M381.16,21.74H381a2.48,2.48,0,0,0-.68-.19c-.79,0-1.58,0-2.36,0-3.59,0-7.17,0-10.75,0a1.78,1.78,0,0,0-.55.21h-1.25a2.33,2.33,0,0,0-.63-.24c-1.66,0-3.32,0-5,0q-9.24,0-18.46,0a1.85,1.85,0,0,0-.57.2h-.14a2.92,2.92,0,0,0-.68-.2c-.84,0-1.67,0-2.51,0H326.77c-.15,0-.3.14-.45.21h-1.26a2,2,0,0,0-.65-.23c-1.7,0-3.41,0-5.11,0-2.61,0-5.22,0-7.83,0a3.25,3.25,0,0,0-.74.2h-.14a2.24,2.24,0,0,0-.62-.2c-1.56,0-3.12,0-4.67-.05v-.87a2.48,2.48,0,0,1,.73-.23c3.54,0,7.09,0,10.63,0,1.64,0,3.28.09,4.92.11.73,0,1.46-.08,2.2-.07s1.69.14,2.53.14c1.16,0,2.31,0,3.47-.07.87,0,1.74-.1,2.62-.1l24.12,0c1.41,0,2.83,0,4.24.05.91,0,1.82.09,2.73.13.63,0,1.26,0,1.89,0s1.49,0,2.24,0c.19,0,.39-.08.58-.08.66,0,1.32,0,2,0,.32,0,.63.09.93.07.79,0,1.57-.16,2.35-.16,4.1,0,8.21,0,12.31,0,.51,0,.74.13.69.6a4.46,4.46,0,0,0,0,.53l-.67,0c-1.32,0-2.64,0-4,0A2.32,2.32,0,0,0,381.16,21.74Z"/><path class="cls-8" d="M381.16,21.74a2.32,2.32,0,0,1,.65-.2c1.32,0,2.64,0,4,0l.67,0a4.46,4.46,0,0,1,0-.53c.05-.47-.18-.6-.69-.6-4.1,0-8.21,0-12.31,0-.78,0-1.56.13-2.35.16-.3,0-.61-.06-.93-.07-.65,0-1.31,0-2,0-.19,0-.39.08-.58.08-.75,0-1.49,0-2.24,0s-1.26,0-1.89,0c-.91,0-1.82-.11-2.73-.13-1.41,0-2.83-.06-4.24-.05l-24.12,0c-.88,0-1.75.07-2.62.1-1.16,0-2.31.08-3.47.07-.84,0-1.69-.12-2.53-.14s-1.47.08-2.2.07c-1.64,0-3.28-.1-4.92-.11-3.54,0-7.09,0-10.63,0a2.48,2.48,0,0,0-.73.23v-.5h81.29v1.62Z"/><path class="cls-8" d="M340.79,21.74a1.85,1.85,0,0,1,.57-.2q9.22,0,18.46,0c1.66,0,3.32,0,5,0a2.33,2.33,0,0,1,.63.24Z"/><path class="cls-8" d="M366.68,21.74a1.78,1.78,0,0,1,.55-.21c3.58,0,7.16,0,10.75,0,.78,0,1.57,0,2.36,0a2.48,2.48,0,0,1,.68.19Z"/><path class="cls-8" d="M310.73,21.74a3.25,3.25,0,0,1,.74-.2c2.61,0,5.22,0,7.83,0,1.7,0,3.41,0,5.11,0a2,2,0,0,1,.65.23Z"/><path class="cls-8" d="M326.32,21.74c.15-.07.3-.21.45-.21h10.69c.84,0,1.67,0,2.51,0a2.92,2.92,0,0,1,.68.2Z"/><path class="cls-8" d="M305.3,21.49c1.55,0,3.11,0,4.67.05a2.24,2.24,0,0,1,.62.2h-4.95C305.46,21.74,305.21,21.8,305.3,21.49Z"/></g><g id="Calque_17" data-name="Calque 17"><text class="cls-9" transform="translate(114.99 74.78) scale(2.37 1)">THE WETLAND WORLD’S BEGUILING BROADSHEET OF CHOICE</text><polygon class="cls-2" points="109.93 70.75 106.79 73.73 107.47 78.01 103.67 75.94 99.81 77.91 100.59 73.65 97.53 70.59 101.83 70.03 103.79 66.17 105.66 70.07 109.93 70.75"/><polygon class="cls-2" points="109.32 75.75 104.99 75.87 102.63 79.5 101.19 75.42 97 74.3 100.44 71.67 100.21 67.34 103.78 69.79 107.82 68.24 106.59 72.39 109.32 75.75"/><polygon class="cls-2" points="428.21 71.58 425.07 74.56 425.75 78.84 421.94 76.78 418.09 78.74 418.87 74.48 415.81 71.42 420.1 70.86 422.07 67 423.93 70.91 428.21 71.58"/><polygon class="cls-2" points="427.59 76.59 423.27 76.7 420.91 80.33 419.46 76.25 415.28 75.14 418.71 72.5 418.49 68.18 422.05 70.63 426.09 69.07 424.87 73.22 427.59 76.59"/></g><g id="Calque_18" data-name="Calque 18"><text class="cls-10" transform="translate(3.4 20.93) scale(0.98 1)">bewet</text><text class="cls-10" transform="translate(55.53 22.64) scale(0.87 1)">beguile</text><text class="cls-11" transform="translate(388.63 22.81) scale(1.05 1)">spellbind conju<tspan class="cls-12" x="23.9" y="0">r</tspan><tspan x="25.47" y="0">e enchant divina</tspan><tspan class="cls-13" x="52.3" y="0">t</tspan><tspan class="cls-14" x="53.66" y="0">e</tspan></text><text class="cls-15" transform="matrix(2.25, 0, 0, -1, 2.8, 82.09)">beguile bewi<tspan class="cls-16" x="13.12" y="0">t</tspan><tspan x="14.05" y="0">ch enso</tspan><tspan class="cls-17" x="21.89" y="0">r</tspan><tspan class="cls-18" x="22.97" y="0">cel hex</tspan></text><text class="cls-11" transform="matrix(1.05, 0, 0, -1, 390.14, 82.67)">spellbind conju<tspan class="cls-12" x="23.9" y="0">r</tspan><tspan x="25.47" y="0">e enchant divina</tspan><tspan class="cls-13" x="52.3" y="0">t</tspan><tspan class="cls-14" x="53.66" y="0">e</tspan></text></g></g></svg>