<?xml version="1.0" encoding="UTF-8" standalone="no"?>
<!-- Generator: Adobe Illustrator 16.0.0, SVG Export Plug-In . SVG Version: 6.00 Build 0)  -->

<svg
   xmlns:dc="http://purl.org/dc/elements/1.1/"
   xmlns:cc="http://creativecommons.org/ns#"
   xmlns:rdf="http://www.w3.org/1999/02/22-rdf-syntax-ns#"
   xmlns:svg="http://www.w3.org/2000/svg"
   xmlns="http://www.w3.org/2000/svg"
   xmlns:sodipodi="http://sodipodi.sourceforge.net/DTD/sodipodi-0.dtd"
   xmlns:inkscape="http://www.inkscape.org/namespaces/inkscape"
   version="1.1"
   id="Layer_1"
   x="0px"
   y="0px"
   width="268.01514"
   height="161.84848"
   viewBox="0 0 268.01514 161.84848"
   enable-background="new 0 0 245 161"
   xml:space="preserve"
   inkscape:version="0.91 r13725"
   sodipodi:docname="logo_livingobs.svg"><metadata
     id="metadata3649"><rdf:RDF><cc:Work
         rdf:about=""><dc:format>image/svg+xml</dc:format><dc:type
           rdf:resource="http://purl.org/dc/dcmitype/StillImage" /><dc:title></dc:title></cc:Work></rdf:RDF></metadata><defs
     id="defs3647" /><sodipodi:namedview
     pagecolor="#ffffff"
     bordercolor="#666666"
     borderopacity="1"
     objecttolerance="10"
     gridtolerance="10"
     guidetolerance="10"
     inkscape:pageopacity="0"
     inkscape:pageshadow="2"
     inkscape:window-width="1207"
     inkscape:window-height="1091"
     id="namedview3645"
     showgrid="false"
     inkscape:zoom="1.3469388"
     inkscape:cx="21.159091"
     inkscape:cy="81.242419"
     inkscape:window-x="0"
     inkscape:window-y="31"
     inkscape:window-maximized="0"
     inkscape:current-layer="Layer_1"
     fit-margin-top="0"
     fit-margin-left="0"
     fit-margin-right="0"
     fit-margin-bottom="0" /><g
     id="g3567"
     transform="translate(23.015152,0.10606086)"><path
       d="m 77.284,126.282 c 0,3.518 -2.844,6.362 -6.351,6.362 -3.524,0 -6.37,-2.845 -6.37,-6.362 0,-3.525 2.846,-6.363 6.37,-6.363 3.506,-10e-4 6.351,2.837 6.351,6.363 z m 0,20.228 c 0,3.515 -2.844,6.363 -6.351,6.363 -3.524,0 -6.37,-2.849 -6.37,-6.363 0,-3.505 2.846,-6.356 6.37,-6.356 3.506,0 6.351,2.851 6.351,6.356 z m -20.154,0 c 0,3.515 -2.848,6.363 -6.361,6.363 -3.517,0 -6.362,-2.849 -6.362,-6.363 0,-3.505 2.845,-6.356 6.362,-6.356 3.513,0 6.361,2.851 6.361,6.356 z"
       id="path3569"
       inkscape:connector-curvature="0"
       style="fill:none;stroke:#ffffff;stroke-width:3;stroke-miterlimit:4;stroke-dasharray:none" /><path
       d="m 221.075,130.951 c -9.116,0 -8.84,21.099 -18.531,21.099 -9.697,0 -9.126,-21.099 -19.103,-21.099 -9.979,0 -9.133,21.099 -19.112,21.099 -9.974,0 -10.259,-21.099 -19.681,-21.099 -9.396,0 -9.106,20.823 -18.797,20.823 -9.701,0 -9.418,-20.823 -19.407,-20.823"
       id="path3571"
       inkscape:connector-curvature="0"
       style="fill:none;stroke:#ffffff;stroke-width:3;stroke-miterlimit:4;stroke-dasharray:none" /><path
       d="m 98.307,85.419 c 0,4.215 -3.418,7.622 -7.639,7.622 -4.221,0 -7.639,-3.406 -7.639,-7.622 0,-4.226 3.418,-7.649 7.639,-7.649 4.221,0 7.639,3.423 7.639,7.649"
       id="path3573"
       inkscape:connector-curvature="0"
       style="fill:#ffffff" /><path
       d="m 58.41,105.772 c 0,4.222 -3.417,7.645 -7.639,7.645 -4.216,0 -7.641,-3.423 -7.641,-7.645 0,-4.221 3.424,-7.636 7.641,-7.636 4.222,0 7.639,3.415 7.639,7.636"
       id="path3575"
       inkscape:connector-curvature="0"
       style="fill:#ffffff" /><path
       d="m 78.368,105.772 c 0,4.222 -3.421,7.645 -7.647,7.645 -4.209,0 -7.641,-3.423 -7.641,-7.645 0,-4.221 3.431,-7.636 7.641,-7.636 4.225,0 7.647,3.415 7.647,7.636"
       id="path3577"
       inkscape:connector-curvature="0"
       style="fill:#ffffff" /><path
       d="m 98.307,105.772 c 0,4.222 -3.418,7.645 -7.639,7.645 -4.221,0 -7.639,-3.423 -7.639,-7.645 0,-4.221 3.418,-7.636 7.639,-7.636 4.221,0 7.639,3.415 7.639,7.636"
       id="path3579"
       inkscape:connector-curvature="0"
       style="fill:#ffffff" /><path
       d="m 38.511,126.134 c 0,4.23 -3.418,7.644 -7.641,7.644 -4.209,0 -7.634,-3.413 -7.634,-7.644 0,-4.222 3.425,-7.628 7.634,-7.628 4.223,0 7.641,3.407 7.641,7.628"
       id="path3581"
       inkscape:connector-curvature="0"
       style="fill:#ffffff" /><path
       d="m 58.41,126.134 c 0,4.23 -3.417,7.644 -7.639,7.644 -4.216,0 -7.641,-3.413 -7.641,-7.644 0,-4.222 3.424,-7.628 7.641,-7.628 4.222,0 7.639,3.407 7.639,7.628"
       id="path3583"
       inkscape:connector-curvature="0"
       style="fill:#ffffff" /><path
       d="m 98.307,126.134 c 0,4.23 -3.418,7.644 -7.639,7.644 -4.221,0 -7.639,-3.413 -7.639,-7.644 0,-4.222 3.418,-7.628 7.639,-7.628 4.221,0 7.639,3.407 7.639,7.628"
       id="path3585"
       inkscape:connector-curvature="0"
       style="fill:#ffffff" /><path
       d="m 38.511,146.51 c 0,4.216 -3.418,7.636 -7.641,7.636 -4.209,0 -7.634,-3.42 -7.634,-7.636 0,-4.224 3.425,-7.643 7.634,-7.643 4.223,0.001 7.641,3.42 7.641,7.643"
       id="path3587"
       inkscape:connector-curvature="0"
       style="fill:#ffffff" /><path
       d="m 18.559,146.51 c 0,4.216 -3.413,7.636 -7.642,7.636 -4.209,0 -7.632,-3.42 -7.632,-7.636 0,-4.224 3.423,-7.643 7.632,-7.643 4.229,0.001 7.642,3.42 7.642,7.643"
       id="path3589"
       inkscape:connector-curvature="0"
       style="fill:#ffffff" /><path
       d="m 98.307,146.51 c 0,4.216 -3.418,7.636 -7.639,7.636 -4.221,0 -7.639,-3.42 -7.639,-7.636 0,-4.224 3.418,-7.643 7.639,-7.643 4.221,0.001 7.639,3.42 7.639,7.643"
       id="path3591"
       inkscape:connector-curvature="0"
       style="fill:#ffffff" /><path
       d="m 90.371,40.864 c 0,0 12.666,32.841 0,32.77 -12.739,0 0,-32.77 0,-32.77"
       id="path3627"
       inkscape:connector-curvature="0"
       style="fill:#ffffff" /><path
       d="m 91.679,40.885 c 0,0 32.148,14.24 23.169,23.166 -9.031,8.982 -23.169,-23.166 -23.169,-23.166"
       id="path3629"
       inkscape:connector-curvature="0"
       style="fill:#ffffff" /><path
       d="m 91.697,39.67 c 0,0 32.804,-12.667 32.77,0 -0.037,12.696 -32.77,0 -32.77,0"
       id="path3631"
       inkscape:connector-curvature="0"
       style="fill:#ffffff" /><path
       d="m 91.679,38.296 c 0,0 14.238,-32.148 23.169,-23.169 8.979,9.029 -23.169,23.169 -23.169,23.169"
       id="path3633"
       inkscape:connector-curvature="0"
       style="fill:#ffffff" /><path
       d="m 90.546,38.314 c 0,0 -12.665,-32.803 0,-32.803 12.738,0.072 0,32.803 0,32.803"
       id="path3635"
       inkscape:connector-curvature="0"
       style="fill:#ffffff" /><path
       d="m 89.12,38.296 c 0,0 -32.146,-14.241 -23.17,-23.169 9.03,-8.983 23.17,23.169 23.17,23.169"
       id="path3637"
       inkscape:connector-curvature="0"
       style="fill:#ffffff" /><path
       d="m 89.142,39.662 c 0,0 -32.8,12.665 -32.771,0 0.038,-12.697 32.771,0 32.771,0"
       id="path3639"
       inkscape:connector-curvature="0"
       style="fill:#ffffff" /><path
       d="m 89.12,40.88 c 0,0 -14.238,32.153 -23.17,23.171 C 56.974,55.023 89.12,40.88 89.12,40.88"
       id="path3641"
       inkscape:connector-curvature="0"
       style="fill:#ffffff" /><path
       d="m 98.293,39.686 c 0,4.311 -3.489,7.801 -7.806,7.801 -4.318,0 -7.807,-3.49 -7.807,-7.801 0,-4.314 3.489,-7.814 7.807,-7.814 4.317,-0.001 7.806,3.499 7.806,7.814"
       id="path3643"
       inkscape:connector-curvature="0"
       style="fill:#ffffff" /></g></svg>