<svg xmlns="http://www.w3.org/2000/svg" viewBox="0 0 75.29 73.7"><defs><style>.cls-1{fill:#1d1d1b;}.cls-2,.cls-4,.cls-6{fill:none;stroke:#1d1d1b;stroke-miterlimit:10;}.cls-2{stroke-width:0.25px;}.cls-3{fill:#f4eee7;}.cls-5{fill:#020203;}.cls-6{stroke-width:0.5px;}</style></defs><title>logo-datavizFichier 1</title><g id="Calque_2" data-name="Calque 2"><g id="Calque_1-2" data-name="Calque 1"><path class="cls-1" d="M20.72,55.46s1.2-.8,3.34,1.07.88-1,.88-1l3.54,3.11s-1.08,1,1.65,7.65c0,0,1.89-.6,1.62-5.07l.71.51s.08,5.3-1.79,5.49c0,0-.47.14.6,2.54l.33,1.8-1.87.6-.4-1.13a3.83,3.83,0,0,0-2,1.13c-1,1-1.54.94-1.54.94h-3s-.47.4-1.07-1c-.37-.87.74-1,1.64-1a2.26,2.26,0,0,0,1.79-.76l1.78-2Z"/><path class="cls-1" d="M53.36,56S52.16,55.15,50,57s-.88-1-.88-1l-3.53,3.11s1.08,1-1.66,7.65c0,0-1.88-.59-1.62-5.07l-.71.52s-.07,5.29,1.8,5.49c0,0,.46.13-.61,2.53l-.33,1.81,1.87.6.4-1.14a3.9,3.9,0,0,1,2,1.14c1,1,1.54.93,1.54.93h3s.47.4,1.07-1c.37-.87-.73-1-1.63-1a2.3,2.3,0,0,1-1.8-.76l-1.78-2Z"/><path class="cls-2" d="M.12,22H.86a.56.56,0,0,0,.46-.24l.87-1.19a.33.33,0,0,1,.51,0l6.46,6.76,3.59,4.2,4.55,5.32a.33.33,0,0,1,0,.42L15.3,40a.4.4,0,0,1-.64,0,41,41,0,0,1-5-7.07,13.23,13.23,0,0,0-5-5.23,2.33,2.33,0,0,1-.55-.43l-3.79-4a.87.87,0,0,1-.24-.59Z"/><path class="cls-2" d="M16.66,38.1C15,38,8.11,29.24,8.11,29.24l-1-1L.67,22l1.67-.16,3.82,4"/><path class="cls-3" d="M7.4,29.46c-1.69.36-.37-.94-.37-.94l1.86-1.09a.91.91,0,0,1,.58-.12c3.41.57,9.83,4.34,9.83,4.34h2l1.47,5s.44-.62-1.47.23-4.8-2.42-4.8-2.42-3.87-3.69-4.05-3.14C11.25,31.5,9.61,29,9,29Z"/><path class="cls-2" d="M7.4,29.46c-1.69.36-.37-.94-.37-.94l1.86-1.09a.91.91,0,0,1,.58-.12c3.41.57,9.83,4.34,9.83,4.34h2l1.47,5s.44-.62-1.47.23-4.8-2.42-4.8-2.42-3.87-3.69-4.05-3.14C11.25,31.5,9.61,29,9,29Z"/><path class="cls-4" d="M21.12,31.23s5.07,10.55-.4,20.29c0,0,10.61,10.88,16.42,12.88,0,0,12.42-6.87,16.42-11.94,0,0-5.21-12.42.47-21.23,0,0-5.47-2.8-7.41-7.94,0,0-7.68,4.87-18.09,0A19.7,19.7,0,0,1,21.12,31.23Z"/><path class="cls-2" d="M75.16,22h-.73a.58.58,0,0,1-.47-.24l-.86-1.19a.33.33,0,0,0-.51,0l-6.47,6.76-3.59,4.2L58,36.79a.35.35,0,0,0,0,.42L60,40a.4.4,0,0,0,.64,0,42.19,42.19,0,0,0,5-7.07,13.23,13.23,0,0,1,5-5.23,2.33,2.33,0,0,0,.55-.43l3.79-4a.86.86,0,0,0,.23-.59Z"/><path class="cls-2" d="M58.63,38.1c1.68-.13,8.55-8.86,8.55-8.86l1-1L74.62,22,73,21.82l-3.82,4"/><path class="cls-3" d="M67.89,29.46c1.69.36.36-.94.36-.94L66.4,27.43a.93.93,0,0,0-.59-.12c-3.4.57-9.82,4.34-9.82,4.34H54l-1.47,5s-.45-.62,1.47.23,4.8-2.42,4.8-2.42,3.87-3.69,4-3.14C64,31.5,65.68,29,66.28,29Z"/><path class="cls-2" d="M67.89,29.46c1.69.36.36-.94.36-.94L66.4,27.43a.93.93,0,0,0-.59-.12c-3.4.57-9.82,4.34-9.82,4.34H54l-1.47,5s-.45-.62,1.47.23,4.8-2.42,4.8-2.42,3.87-3.69,4-3.14C64,31.5,65.68,29,66.28,29Z"/><path class="cls-5" d="M34,28.77H26.46v1.62h.43a.52.52,0,0,1,.27.07.36.36,0,0,1,.1.06,1.17,1.17,0,0,1,.38.82v5.19a1.17,1.17,0,0,1-.46.89.63.63,0,0,1-.32.11h-.4v1.64H33l2.18-6.57s0,0,0,0Zm-1.31,3.81-1.58,4.54H30.07V30.79h2.16l.49,1.68a.2.2,0,0,1,0,.11"/><path class="cls-5" d="M48.17,44.65H40.6v1.61H41a.64.64,0,0,1,.28.07l.1.07a1.15,1.15,0,0,1,.38.81v5.2a1.21,1.21,0,0,1-.46.89.67.67,0,0,1-.32.1h-.4v1.65h6.57l2.18-6.58s0,0,0,0Zm-1.31,3.81L45.28,53H44.21V46.67h2.16l.49,1.68a.2.2,0,0,1,0,.11"/><path class="cls-1" d="M35.19,20.74A31.76,31.76,0,0,0,34,15.15a2.26,2.26,0,0,0-2.22-1.24V11.46s-1.54-4.38-5-5.36-5-5.45-5-5.45c-2.09,3.49,2.74,6.63,2.74,6.63-2.22-.63-4.31-3.89-4.31-3.89-.78,3.4,4.8,6,4.8,6-2.81.2-5.49-3.36-5.49-3.36C19.18,11.59,25.62,12,25.62,12,23.2,12.8,19.44,10,19.44,10c.33,4.38,7,3.76,7,3.76-1.86,1-5.71-.16-5.71-.16A5.79,5.79,0,0,0,27,15.9a2.71,2.71,0,0,1-1.86.5,24.58,24.58,0,0,1-3.72-.27c1.5,2.06,4.9,1.83,4.9,1.83a8.21,8.21,0,0,1-3.33.26c.45,1.47,4.83,1.53,4.83,1.53a2.15,2.15,0,0,1-1.57.85c.95,1,3.53.46,3.53.46-.75,1.08-.56,1-.52,1.27s1.6,0,1.6,0,.09-.42,2.64-.51,1.67-1.08,1.67-1.08m-4.74-7.13S28.2,11,27.94,9.07c0,0,1.78,3.79,2.74,4.48A5,5,0,0,0,33.42,18s-2.84-.39-3-4.41"/><path class="cls-1" d="M35.17,7.4c-.65-.07.25.51.8.84a.86.86,0,0,0-.8-.84"/><path class="cls-6" d="M35.17,7.4c-.65-.07.25.51.8.84A.86.86,0,0,0,35.17,7.4Z"/><path class="cls-1" d="M40.89,20.35l.26-5.41.19-.35a2.09,2.09,0,0,1-1.19-2.81,2.92,2.92,0,0,0-.85-3.37s.82-1.47.3-1.5-.82,1.57-.82,1.57l-2.45,0L36,8.24a.78.78,0,0,1,0,.17l-.36.36a2.79,2.79,0,0,0-.42,4.12c-1.31.55-.67,4.18-.67,4.18l-.2.34s.12,3.31,1.42,3.37L34.6,22.19s-2.61-.4-3.63.65.92,1.37.92,1.37.41,1.08,2.28-.78c0,0,2.59,0,3.7-1.83a3,3,0,0,0,.78,1.73c.72.75-.46,2.19-.46,2.19l1.73-.26a2.52,2.52,0,0,1,1.23-2.65c1.62-1-.26-2.26-.26-2.26M36,11.3a.74.74,0,1,1,.73-.73.74.74,0,0,1-.73.73m2.62,0a.74.74,0,1,1,.73-.73.74.74,0,0,1-.73.73"/><path class="cls-6" d="M40.89,20.35l.26-5.41.19-.35a2.09,2.09,0,0,1-1.19-2.81,2.92,2.92,0,0,0-.85-3.37s.82-1.47.3-1.5-.82,1.57-.82,1.57l-2.45,0L36,8.24a.78.78,0,0,1,0,.17l-.36.36a2.79,2.79,0,0,0-.42,4.12c-1.31.55-.67,4.18-.67,4.18l-.2.34s.12,3.31,1.42,3.37L34.6,22.19s-2.61-.4-3.63.65.92,1.37.92,1.37.41,1.08,2.28-.78c0,0,2.59,0,3.7-1.83a3,3,0,0,0,.78,1.73c.72.75-.46,2.19-.46,2.19l1.73-.26a2.52,2.52,0,0,1,1.23-2.65C42.77,21.63,40.89,20.35,40.89,20.35ZM36,11.3a.74.74,0,1,1,.73-.73A.74.74,0,0,1,36,11.3Zm2.62,0a.74.74,0,1,1,.73-.73A.74.74,0,0,1,38.59,11.3Z"/><path class="cls-1" d="M41.45,21.17c2.54.09,2.64.52,2.64.52s1.57.29,1.6,0,.23-.2-.52-1.28c0,0,2.58.53,3.53-.45a2.19,2.19,0,0,1-1.57-.85S51.51,19,52,17.57a8.21,8.21,0,0,1-3.33-.26s3.4.23,4.9-1.83a23.22,23.22,0,0,1-3.72.27,2.71,2.71,0,0,1-1.86-.5,5.78,5.78,0,0,0,6.3-2.35s-3.85,1.14-5.72.17c0,0,6.67.62,7-3.76,0,0-3.75,2.84-6.17,2.06,0,0,6.44-.43,6.17-5.95,0,0-2.67,3.56-5.48,3.37,0,0,5.58-2.65,4.8-6,0,0-2.09,3.27-4.31,3.89,0,0,4.83-3.14,2.74-6.63,0,0-1.57,4.47-5,5.45s-5,5.36-5,5.36v2.45A2.28,2.28,0,0,0,41,14.5a32,32,0,0,0-1.24,5.6s-.88,1,1.67,1.07m.09-3.79a5,5,0,0,0,2.75-4.48c1-.68,2.74-4.47,2.74-4.47C46.77,10.32,44.52,13,44.52,13c-.13,4-3,4.41-3,4.41"/><path class="cls-1" d="M34.69,25.6h0"/><path class="cls-1" d="M34.74,25.6h0"/><path class="cls-1" d="M46.32,23.35l0,0,0,0"/><path class="cls-1" d="M45.77,22.21,45.65,22l.12.25"/><path class="cls-1" d="M46.3,23.32l-.22-.47.22.47"/><path class="cls-1" d="M35.29,25.6h0"/><path class="cls-1" d="M36.05,25.59h0"/><path class="cls-1" d="M36.84,25.59h0"/><path class="cls-1" d="M37,25.58h0"/><path class="cls-1" d="M35.34,25.6h0Z"/><path class="cls-1" d="M36.39,25.59h0"/><path class="cls-1" d="M37.07,25.58h0"/><path class="cls-1" d="M35.7,25.59h0"/><path class="cls-1" d="M36.23,25.59h0"/><path class="cls-1" d="M45.65,22c-.08-.19-.17-.37-.25-.54l.25.54"/><path class="cls-1" d="M53.73,31.3l.07-.12a.47.47,0,0,0-.07.12"/><path class="cls-1" d="M45.4,21.42l0-.06,0,.06"/><path class="cls-1" d="M45.24,21.09h0"/><path class="cls-1" d="M45.27,21.16l0-.07,0,.07"/><path class="cls-1" d="M54.06,30.73l.12-.19-.12.19"/><path class="cls-1" d="M46.32,23.35a20.49,20.49,0,0,1-9.25,2.23l.3,16.4H51.15s-1-4.74,2.58-10.68a16.92,16.92,0,0,1-7.41-7.95m2.51,12.53-1.44,0,.23,1.45-1.89-1-1.3,2-.6-1.69-1.26.64.33-1.79-2.18-.58,1.58-1.22-1.23-1.23,1.86-.24-.1-1.9,1.46,1,.9-1.77,1,2,1.69-.65-.4,1.37,1.8.29L47.5,34.24Z"/><path class="cls-1" d="M45.37,21.36c0-.07-.07-.14-.1-.2l.1.2"/><path class="cls-1" d="M20.71,51.59l-.08-.08.08.08"/><polyline class="cls-1" points="23.24 41.03 23.24 41.02 23.24 41.03"/><path class="cls-1" d="M23.31,42v0"/><path class="cls-1" d="M23.22,40.77c0-.61,0-.41,0,0"/><path class="cls-1" d="M23.31,42c.28,3.6-2.6,9.61-2.6,9.61A74.69,74.69,0,0,0,37.13,64.47L37.37,42Zm10.61,9.78-1.44,0,.22,1.44-1.88-1-1.3,2-.6-1.69-1.26.64L28,51.39l-2.18-.59,1.58-1.21-1.23-1.23L28,48.11l-.1-1.89,1.46,1,.9-1.78,1,2,1.69-.65-.4,1.37,1.8.28-1.74,1.65Z"/><path class="cls-1" d="M23.24,41c0-.09,0-.18,0-.26,0,.08,0,.16,0,.26"/><path class="cls-1" d="M23.26,41.31l0-.28c0,.09,0,.18,0,.28"/><path class="cls-1" d="M23.29,41.71c0-.05,0-.12,0-.19s0,.13,0,.19"/><path class="cls-1" d="M23.31,41.91c0-.07,0-.13,0-.2,0,.09,0,.16,0,.2"/><path class="cls-1" d="M23.28,41.52c0-.07,0-.14,0-.21s0,.14,0,.21"/></g></g></svg>